# xmcd
#
# Track frame offsets: 
#        150
#        28318
#        56206
#        84184
#        100299
#        124426
#        146262
#        168881
#        181527
#        191902
#        208319
#        219474
#        246541
#        257755
#        266752
#        285171
#        303270
#
# Disc length: 4141 seconds
#
# Revision: 2
# Processed by: cddbd v1.5.2PL0 Copyright (c) Steve Scherf et al.
# Submitted via: ExactAudioCopy v1.3
#
DISCID=fe102b11
DTITLE=Various Artist - Blue Note Trip: Heat Up - Simmer Down
DYEAR=2011
DGENRE=Jazz
TTITLE0=Cannonball Adderley Sextet - Fun In The Church
TTITLE1=Bobbi Humphrey - Uno Esta
TTITLE2=Lonnie Smith - People Sure Act Funny
TTITLE3=Donald Byrd - (Fallin' Like) Dominoes
TTITLE4=Grant Green - The Windjammer
TTITLE5=Candido - Money Man
TTITLE6=Bud Powell - Duid Deed
TTITLE7=Ben Sidran - About Love
TTITLE8=Patti Drew - Hard To Handle
TTITLE9=Lou Donaldson - Say It Loud (I'm Black And I'm Proud)
TTITLE10=Peggy Lee - (Sittin' On) The Dock Of The Bay
TTITLE11=Gene Harris and The Three Sounds - African Sweets
TTITLE12=Eddie Gale - The Rain
TTITLE13=Ella Fitzgerald - Hawaiian War Chant (Ta-Hu-Wa-Hu-Wai)
TTITLE14=Marc Moulin - Where Is It?
TTITLE15=Horace Silver - Wipe Away The Evil
TTITLE16=June Christy - It Don't Mean A Thing (If It Ain't Got That Sw
TTITLE16=ing)
EXTD=YEAR: 2011
EXTT0=
EXTT1=
EXTT2=
EXTT3=
EXTT4=
EXTT5=
EXTT6=
EXTT7=
EXTT8=
EXTT9=
EXTT10=
EXTT11=
EXTT12=
EXTT13=
EXTT14=
EXTT15=
EXTT16=
PLAYORDER=
